<?xml version="1.0" encoding="UTF-8"?> <!-- Creator: CorelDRAW X7 --> <svg xmlns="http://www.w3.org/2000/svg" xmlns:xlink="http://www.w3.org/1999/xlink" xml:space="preserve" width="338px" height="338px" shape-rendering="geometricPrecision" text-rendering="geometricPrecision" image-rendering="optimizeQuality" fill-rule="evenodd" clip-rule="evenodd" viewBox="0 0 538558 538558"> <g id="Layer_x0020_1"> <metadata id="CorelCorpID_0Corel-Layer"></metadata> <rect fill="#207FA1" width="538558" height="538558" rx="15958" ry="15958"></rect> <polygon fill="#FEFEFE" fill-rule="nonzero" points="105497,232418 105497,193410 236133,193410 236133,228339 161224,363012 109414,363012 184080,232418 "></polygon> <path id="1" fill="#FEFEFE" fill-rule="nonzero" d="M223654 385302c7914,-929 13932,-3270 18050,-6986 4159,-3715 6219,-8642 6219,-14778l0 -971 -18657 0 0 -47165 47974 0 0 38442c0,17123 -4280,29440 -12882,37031 -8602,7592 -20918,11629 -37031,12115l-3673 -17688z"></path> <path id="2" fill="#FEFEFE" fill-rule="nonzero" d="M292222 339428l26853 -31456c14699,12315 28390,18454 41189,18454 7714,0 13811,-1817 18253,-5451 4482,-3636 6704,-8602 6704,-14901 0,-5976 -2303,-10743 -6866,-14295 -4563,-3555 -10620,-5330 -18091,-5330 -8681,0 -17726,2825 -27095,8519l-27783 -15466 4725 -86092 113634 0 0 38523 -76280 0 -1414 26490c8561,-3916 17605,-5895 27055,-5895 6259,0 12196,646 17809,1979 5652,1332 10943,3432 15869,6298 4927,2867 9207,6380 12762,10500 3594,4118 6461,9167 8560,15102 2100,5977 3149,12519 3149,19667 0,18616 -6460,33315 -19382,44137 -12923,10782 -29843,16193 -50801,16193 -14335,0 -27055,-2303 -38080,-6905 -11024,-4644 -21281,-11307 -30770,-20071z"></path> </g> </svg> 