<?xml version="1.0" encoding="UTF-8"?> <!-- Creator: CorelDRAW X7 --> <svg xmlns="http://www.w3.org/2000/svg" xmlns:xlink="http://www.w3.org/1999/xlink" xml:space="preserve" width="338px" height="338px" shape-rendering="geometricPrecision" text-rendering="geometricPrecision" image-rendering="optimizeQuality" fill-rule="evenodd" clip-rule="evenodd" viewBox="0 0 538558 538558"> <g id="Layer_x0020_1"> <metadata id="CorelCorpID_0Corel-Layer"></metadata> <rect fill="#207FA1" width="538558" height="538558" rx="15958" ry="15958"></rect> <polygon fill="#FEFEFE" fill-rule="nonzero" points="106083,376797 148226,313640 106854,251640 154202,251640 172710,282370 191256,251640 237793,251640 196576,313408 238681,376797 191487,376797 172054,344602 152389,376797 "></polygon> <path id="1" fill="#FEFEFE" fill-rule="nonzero" d="M249767 376797l0 -41215 73624 -56016c9275,-6930 15785,-13067 19579,-18406 3794,-5340 5712,-10960 5712,-16861 0,-6088 -1966,-10913 -5946,-14471 -3982,-3560 -9275,-5339 -15879,-5339 -6415,0 -12505,1920 -18359,5714 -5854,3839 -12786,10304 -20747,19435l-36767 -30536c11241,-14706 22856,-25477 34800,-32223 11943,-6790 26977,-10162 45195,-10162 21450,0 38827,5854 52175,17609 13347,11757 20046,27072 20046,45853 0,7680 -937,14612 -2811,20841 -1873,6229 -4872,12083 -9039,17470 -4169,5431 -8805,10398 -13911,14893 -5104,4497 -11661,9600 -19716,15221l-33721 23512 81118 0 0 44681 -155353 0z"></path> </g> </svg> 