<?xml version="1.0" encoding="UTF-8"?> <svg xmlns="http://www.w3.org/2000/svg" xmlns:xlink="http://www.w3.org/1999/xlink" xmlns:xodm="http://www.corel.com/coreldraw/odm/2003" xml:space="preserve" width="221px" height="221px" version="1.1" style="shape-rendering:geometricPrecision; text-rendering:geometricPrecision; image-rendering:optimizeQuality; fill-rule:evenodd; clip-rule:evenodd" viewBox="0 0 195550 195550"> <defs> <style type="text/css"> .fil2 {fill:none} .fil1 {fill:#5CB300;fill-rule:nonzero} .fil0 {fill:white;fill-rule:nonzero} </style> </defs> <g id="Слой_x0020_1"> <metadata id="CorelCorpID_0Corel-Layer"></metadata> <g id="_2327112785360"> <g> <path class="fil0" d="M189280 116560l-93550 0c-1120,0 -2030,920 -2030,2050l0 12220c0,1120 920,2040 2040,2040l30500 0 0 46860c0,1120 910,2040 2030,2040l28470 0c1120,0 2030,-920 2030,-2040l0 -46860 30510 0c1110,0 2030,-920 2030,-2040l0 -12220c0,-1130 -920,-2050 -2030,-2050z"></path> <g> <path class="fil1" d="M19710 181770c2380,0 4550,-2270 3970,-4880 -2070,-8910 -3180,-18180 -3180,-27720 0,-67520 54620,-122250 122010,-122250 16280,0 31790,3210 45990,9010 1520,610 2820,-610 2820,-1880l-10 -13120c0,-890 -560,-1640 -1360,-1920l10 0c-14810,-5420 -30780,-8390 -47450,-8390 -76370,0 -138280,62030 -138280,138550 0,10070 1080,19890 3120,29350 400,1830 2030,3250 3980,3250l8380 0zm0 0l0 0 0 0z"></path> </g> <path class="fil1" d="M47970 124780c-420,1690 -2540,3800 -5320,2770l-7630 -2780c-1960,-720 -3070,-2800 -2590,-4780 12880,-48870 57260,-84920 110080,-84920 17040,0 33190,3760 47710,10480 660,340 1090,1020 1090,1820l0 13660c0,1370 -1380,2490 -2980,1800 -13670,-7300 -29260,-11460 -45820,-11460 -45500,0 -83730,31200 -94540,73410z"></path> <g> <path class="fil1" d="M88020 94930c1570,1310 3830,1240 5310,-100 13000,-11810 30250,-19010 49180,-19010 17190,0 32990,5950 45480,15890 1320,1030 3320,200 3320,-1580l0 -14960c0,-750 -400,-1400 -1000,-1760 -13830,-8780 -30210,-13880 -47800,-13880 -23570,0 -45010,9150 -61000,24090 -2150,2120 -1170,4860 220,6030l6290 5280zm0 0l0 0 0 0z"></path> </g> </g> <rect class="fil2" width="195550" height="195550"></rect> </g> </g> </svg> 