<?xml version="1.0" encoding="UTF-8"?> <!-- Creator: CorelDRAW X7 --> <svg xmlns="http://www.w3.org/2000/svg" xmlns:xlink="http://www.w3.org/1999/xlink" xml:space="preserve" width="338px" height="338px" shape-rendering="geometricPrecision" text-rendering="geometricPrecision" image-rendering="optimizeQuality" fill-rule="evenodd" clip-rule="evenodd" viewBox="0 0 538558 538558"> <g id="Layer_x0020_1"> <metadata id="CorelCorpID_0Corel-Layer"></metadata> <rect fill="#207FA1" width="538558" height="538558" rx="15958" ry="15958"></rect> <polygon fill="#FEFEFE" fill-rule="nonzero" points="59683,206290 109312,192198 143354,192198 143354,363012 97317,363012 97317,236093 68689,242593 "></polygon> <path id="1" fill="#FEFEFE" fill-rule="nonzero" d="M168026 363012l0 -35537 63481 -48296c7995,-5976 13608,-11266 16880,-15869 3270,-4604 4927,-9450 4927,-14539 0,-5249 -1697,-9408 -5129,-12476 -3434,-3071 -7997,-4605 -13690,-4605 -5532,0 -10781,1657 -15830,4927 -5047,3311 -11024,8884 -17888,16759l-31701 -26330c9693,-12678 19707,-21966 30005,-27782 10296,-5854 23259,-8762 38968,-8762 18495,0 33477,5047 44985,15183 11508,10136 17283,23340 17283,39534 0,6623 -807,12599 -2422,17969 -1615,5371 -4199,10418 -7794,15062 -3594,4686 -7591,8966 -11994,12843 -4401,3875 -10055,8277 -17000,13123l-29076 20272 69942 0 0 38524 -133947 0z"></path> <path id="2" fill="#FEFEFE" fill-rule="nonzero" d="M321033 278211c0,-11995 1857,-23341 5613,-34042 3715,-10701 8924,-20029 15547,-28065 6663,-7995 14982,-14336 24916,-19061 9933,-4685 20836,-7026 32587,-7026 11793,0 22615,2341 32507,6985 9854,4644 18092,10984 24715,18940 6623,7955 11751,17282 15385,27984 3675,10701 5492,22130 5492,34285 0,11992 -1859,23340 -5534,34041 -3715,10742 -8882,20069 -15545,28066 -6664,8034 -14982,14375 -24916,19060 -9974,4683 -20877,7026 -32670,7026 -15667,0 -29518,-3997 -41552,-11994 -11992,-7995 -21079,-18655 -27257,-31942 -6178,-13244 -9288,-28024 -9288,-44257zm47003 0c0,13809 2908,25076 8764,33840 5856,8762 13487,13163 22896,13163 9408,0 16960,-4362 22615,-13043 5652,-8682 8479,-19989 8479,-33960 0,-13649 -2948,-24877 -8843,-33720 -5896,-8843 -13487,-13285 -22817,-13285 -9327,0 -16838,4361 -22531,13044 -5694,8681 -8563,19987 -8563,33961z"></path> </g> </svg> 