<?xml version="1.0" encoding="UTF-8"?> <!-- Creator: CorelDRAW X7 --> <svg xmlns="http://www.w3.org/2000/svg" xmlns:xlink="http://www.w3.org/1999/xlink" xml:space="preserve" width="338px" height="338px" shape-rendering="geometricPrecision" text-rendering="geometricPrecision" image-rendering="optimizeQuality" fill-rule="evenodd" clip-rule="evenodd" viewBox="0 0 538558 538558"> <g id="Layer_x0020_1"> <metadata id="CorelCorpID_0Corel-Layer"></metadata> <rect fill="#207FA1" width="538558" height="538558" rx="15958" ry="15958"></rect> <polygon fill="#FEFEFE" fill-rule="nonzero" points="59683,206290 109312,192198 143354,192198 143354,363012 97317,363012 97317,236093 68689,242593 "></polygon> <path id="1" fill="#FEFEFE" fill-rule="nonzero" d="M169966 282975c0,-13327 1615,-25562 4885,-36788 3272,-11185 8117,-20997 14497,-29437 6380,-8440 14618,-15023 24754,-19707 10136,-4685 21644,-7026 34568,-7026 11547,0 21806,1534 30649,4563 8884,3029 17566,7712 26047,14053l-22251 33112c-5775,-4280 -11226,-7471 -16395,-9570 -5129,-2100 -10943,-3150 -17325,-3150 -9610,0 -17081,3231 -22450,9652 -5412,6421 -8644,15183 -9733,26329 5450,-4120 11024,-7350 16798,-9693 5736,-2341 12398,-3513 19990,-3513 7552,0 14657,1172 21402,3555 6744,2382 12720,5814 17888,10215 5210,4442 9330,10096 12398,16960 3029,6825 4563,14458 4563,22856 0,12317 -3068,23139 -9207,32508 -6138,9409 -14296,16476 -24511,21282 -10177,4804 -21523,7228 -34041,7228 -21565,0 -38809,-6461 -51730,-19424 -13851,-13850 -20796,-35212 -20796,-64005zm46518 24794c0,6340 2181,11591 6584,15750 4400,4199 10256,6299 17526,6299 7267,0 13042,-2060 17283,-6220 4240,-4157 6340,-9489 6340,-16070 0,-6220 -2181,-11429 -6584,-15587 -4400,-4160 -10256,-6220 -17526,-6220 -7267,0 -13042,2060 -17282,6220 -4241,4158 -6341,9408 -6341,15828z"></path> <path id="2" fill="#FEFEFE" fill-rule="nonzero" d="M330282 278211c0,-11995 1856,-23341 5612,-34042 3715,-10701 8925,-20029 15547,-28065 6663,-7995 14982,-14336 24916,-19061 9933,-4685 20836,-7026 32587,-7026 11793,0 22615,2341 32508,6985 9853,4644 18091,10984 24714,18940 6623,7955 11751,17282 15385,27984 3675,10701 5492,22130 5492,34285 0,11992 -1858,23340 -5533,34041 -3715,10742 -8883,20069 -15546,28066 -6664,8034 -14981,14375 -24916,19060 -9973,4683 -20877,7026 -32669,7026 -15668,0 -29519,-3997 -41553,-11994 -11992,-7995 -21078,-18655 -27256,-31942 -6179,-13244 -9288,-28024 -9288,-44257zm47003 0c0,13809 2908,25076 8764,33840 5855,8762 13487,13163 22895,13163 9409,0 16961,-4362 22615,-13043 5652,-8682 8479,-19989 8479,-33960 0,-13649 -2947,-24877 -8843,-33720 -5895,-8843 -13487,-13285 -22816,-13285 -9328,0 -16838,4361 -22532,13044 -5694,8681 -8562,19987 -8562,33961z"></path> </g> </svg> 