<?xml version="1.0" encoding="UTF-8"?> <!-- Creator: CorelDRAW X7 --> <svg xmlns="http://www.w3.org/2000/svg" xmlns:xlink="http://www.w3.org/1999/xlink" xml:space="preserve" width="338px" height="338px" shape-rendering="geometricPrecision" text-rendering="geometricPrecision" image-rendering="optimizeQuality" fill-rule="evenodd" clip-rule="evenodd" viewBox="0 0 538558 538558"> <g id="Layer_x0020_1"> <metadata id="CorelCorpID_0Corel-Layer"></metadata> <rect fill="#207FA1" width="538558" height="538558" rx="15958" ry="15958"></rect> <polygon fill="#FEFEFE" fill-rule="nonzero" points="68381,241851 68381,210881 172099,210881 172099,238613 112625,345537 71491,345537 130771,241851 "></polygon> <path id="1" fill="#FEFEFE" fill-rule="nonzero" d="M162191 363234c6284,-737 11062,-2597 14332,-5547 3302,-2949 4938,-6860 4938,-11734l0 -769 -14812 0 0 -37447 38088 0 0 30523c0,13592 -3398,23372 -10228,29399 -6829,6028 -16607,9234 -29400,9618l-2918 -14043z"></path> <path id="2" fill="#FEFEFE" fill-rule="nonzero" d="M216631 326814l21322 -24976c11670,9777 22538,14651 32702,14651 6123,0 10965,-1441 14491,-4327 3559,-2885 5323,-6830 5323,-11832 0,-4744 -1828,-8527 -5451,-11348 -3624,-2822 -8432,-4233 -14363,-4233 -6894,0 -14075,2245 -21514,6764l-22057 -12279 3751 -68353 90219 0 0 30585 -60563 0 -1122 21034c6796,-3112 13979,-4682 21480,-4682 4970,0 9684,513 14139,1570 4490,1059 8689,2725 12600,5002 3912,2277 7311,5066 10132,8336 2854,3270 5130,7279 6796,11991 1668,4745 2501,9940 2501,15613 0,14782 -5130,26452 -15388,35044 -10261,8559 -23693,12856 -40333,12856 -11382,0 -21480,-1828 -30233,-5483 -8753,-3686 -16897,-8977 -24432,-15933z"></path> <path id="3" fill="#FEFEFE" fill-rule="nonzero" d="M340836 245123c0,-10133 3206,-18693 9620,-25682 6444,-6990 14812,-10484 25166,-10484 10261,0 18597,3494 25041,10516 6412,7021 9617,15646 9617,25842 0,10130 -3238,18691 -9745,25679 -6508,6991 -14877,10485 -25105,10485 -10226,0 -18530,-3494 -24942,-10485 -6446,-6956 -9652,-15613 -9652,-25871zm14780 100414l103878 -134656 26002 0 -103878 134656 -26002 0zm8689 -100222c0,4295 1091,7886 3238,10739 2180,2853 4873,4265 8079,4265 3238,0 5932,-1412 8048,-4265 2085,-2853 3142,-6476 3142,-10931 0,-4265 -1089,-7824 -3238,-10677 -2181,-2886 -4906,-4330 -8144,-4330 -3334,0 -6027,1412 -8080,4266 -2018,2853 -3045,6476 -3045,10933zm66558 65724c0,-10131 3238,-18659 9684,-25649 6444,-6957 14812,-10451 25135,-10451 10228,0 18532,3462 24880,10419 6380,6926 9554,15550 9554,25873 0,10036 -3238,18596 -9746,25649 -6478,7053 -14780,10581 -24881,10581 -10194,0 -18498,-3528 -24942,-10549 -6446,-7020 -9684,-15645 -9684,-25873zm23469 192c0,4233 1091,7791 3270,10709 2213,2917 4874,4359 8080,4359 3238,0 5931,-1442 8015,-4295 2085,-2853 3142,-6476 3142,-10933 0,-4328 -1057,-7920 -3174,-10741 -2148,-2820 -4874,-4231 -8176,-4231 -3430,0 -6155,1379 -8143,4135 -2019,2757 -3014,6445 -3014,10997z"></path> </g> </svg> 