<?xml version="1.0" encoding="UTF-8"?> <!-- Creator: CorelDRAW X7 --> <svg xmlns="http://www.w3.org/2000/svg" xmlns:xlink="http://www.w3.org/1999/xlink" xml:space="preserve" width="338px" height="338px" shape-rendering="geometricPrecision" text-rendering="geometricPrecision" image-rendering="optimizeQuality" fill-rule="evenodd" clip-rule="evenodd" viewBox="0 0 538558 538558"> <g id="Layer_x0020_1"> <metadata id="CorelCorpID_0Corel-Layer"></metadata> <rect fill="#207FA1" width="538558" height="538558" rx="15958" ry="15958"></rect> <path fill="#FEFEFE" fill-rule="nonzero" d="M110740 282975c0,-13327 1616,-25562 4886,-36788 3271,-11185 8117,-20997 14497,-29437 6380,-8440 14618,-15023 24754,-19707 10136,-4685 21644,-7026 34567,-7026 11548,0 21806,1534 30650,4563 8884,3029 17565,7712 26046,14053l-22251 33112c-5774,-4280 -11225,-7471 -16395,-9570 -5128,-2100 -10942,-3150 -17324,-3150 -9610,0 -17081,3231 -22451,9652 -5411,6421 -8643,15183 -9733,26329 5451,-4120 11024,-7350 16799,-9693 5735,-2341 12398,-3513 19989,-3513 7552,0 14658,1172 21403,3555 6744,2382 12720,5814 17888,10215 5209,4442 9329,10096 12398,16960 3028,6825 4563,14458 4563,22856 0,12317 -3069,23139 -9207,32508 -6139,9409 -14296,16476 -24511,21282 -10178,4804 -21524,7228 -34042,7228 -21565,0 -38808,-6461 -51730,-19424 -13850,-13850 -20796,-35212 -20796,-64005zm46519 24794c0,6340 2181,11591 6583,15750 4401,4199 10257,6299 17526,6299 7268,0 13043,-2060 17283,-6220 4241,-4157 6340,-9489 6340,-16070 0,-6220 -2180,-11429 -6583,-15587 -4401,-4160 -10257,-6220 -17526,-6220 -7267,0 -13042,2060 -17283,6220 -4240,4158 -6340,9408 -6340,15828z"></path> <path id="1" fill="#FEFEFE" fill-rule="nonzero" d="M271056 278211c0,-11995 1857,-23341 5613,-34042 3715,-10701 8924,-20029 15547,-28065 6663,-7995 14982,-14336 24916,-19061 9932,-4685 20836,-7026 32587,-7026 11792,0 22615,2341 32507,6985 9854,4644 18092,10984 24715,18940 6623,7955 11751,17282 15385,27984 3675,10701 5492,22130 5492,34285 0,11992 -1859,23340 -5534,34041 -3715,10742 -8882,20069 -15545,28066 -6664,8034 -14982,14375 -24916,19060 -9974,4683 -20877,7026 -32670,7026 -15667,0 -29518,-3997 -41552,-11994 -11992,-7995 -21079,-18655 -27257,-31942 -6178,-13244 -9288,-28024 -9288,-44257zm47003 0c0,13809 2908,25076 8764,33840 5856,8762 13487,13163 22896,13163 9408,0 16960,-4362 22615,-13043 5652,-8682 8479,-19989 8479,-33960 0,-13649 -2948,-24877 -8843,-33720 -5896,-8843 -13487,-13285 -22817,-13285 -9327,0 -16838,4361 -22531,13044 -5694,8681 -8563,19987 -8563,33961z"></path> </g> </svg> 